<svg version="1.1" id="Layer_1" xmlns="http://www.w3.org/2000/svg" xmlns:xlink="http://www.w3.org/1999/xlink" x="0px" y="0px"
	 width="100%" viewBox="0 0 560 400" enable-background="new 0 0 560 400" xml:space="preserve">
<path fill="#000000" opacity="1.000000" stroke="none" 
	d="
M133.257584,22.877403 
	C130.776855,21.780748 128.579117,20.962145 126.524071,19.874041 
	C123.713531,18.385912 123.134262,15.767311 124.001343,13.000440 
	C124.862968,10.250995 127.119408,9.161852 129.925476,9.601360 
	C131.384003,9.829807 132.837387,10.308235 134.201569,10.888841 
	C151.517242,18.258608 168.811829,25.677919 186.121292,33.062321 
	C195.683319,37.141586 203.046906,43.617043 207.640182,53.001553 
	C211.886124,61.676411 216.022263,70.406792 220.072083,79.174927 
	C221.519684,82.309113 223.443527,84.608803 226.595444,86.326988 
	C233.369690,90.019745 239.358856,94.863625 244.116196,100.992874 
	C246.270889,103.768936 248.753067,104.679947 252.204605,104.813103 
	C259.845398,105.107895 267.476349,105.824966 275.090179,106.582047 
	C279.173279,106.988052 282.340698,106.532837 284.784210,102.494843 
	C287.817810,97.481750 292.302490,93.611961 297.100006,90.214470 
	C304.196259,85.189034 310.301941,86.553940 314.532074,94.208839 
	C317.455963,99.499916 319.159210,105.269051 320.184143,111.179245 
	C320.625122,113.722084 321.840332,114.848572 324.083588,115.703438 
	C330.458923,118.132942 336.820068,120.622452 343.055450,123.384850 
	C345.379272,124.414360 346.951355,124.274193 348.876526,122.654015 
	C353.846527,118.471497 358.948395,114.442673 364.065460,110.439201 
	C366.845978,108.263794 369.854156,106.508957 373.567749,106.453613 
	C379.310913,106.368011 383.360443,110.202995 384.266602,116.839371 
	C386.136963,130.536438 387.483307,144.278183 387.316650,158.125900 
	C387.288208,160.490036 387.547150,162.669388 388.728577,164.840820 
	C406.612366,197.711288 401.000397,228.357727 379.477539,257.209656 
	C366.080261,275.169037 347.968994,287.140503 327.811462,296.300751 
	C324.253113,297.917786 320.987213,297.600403 319.221466,294.039062 
	C317.365295,290.295410 319.634399,287.737671 322.975586,286.044342 
	C335.018738,279.940796 347.094971,273.907471 357.175415,264.646790 
	C362.577087,259.684387 367.515320,254.344681 372.542908,247.492401 
	C361.861816,247.492401 352.140137,247.430908 342.420441,247.542618 
	C340.398346,247.565842 340.105591,249.667480 339.380585,251.122223 
	C337.749146,254.395737 336.384125,257.842468 334.414764,260.899231 
	C329.389038,268.700104 321.825378,269.023315 315.935944,261.812866 
	C311.410583,256.272491 309.220490,249.564682 307.181335,242.883316 
	C306.199341,239.665787 308.125244,237.357468 311.284882,236.549423 
	C313.187195,236.062912 315.239258,236.025192 317.224548,236.020782 
	C336.223633,235.978607 355.224030,235.871506 374.221069,236.069733 
	C378.417450,236.113495 380.573853,234.542862 382.102448,230.810974 
	C393.380280,203.277145 388.321777,178.542999 368.964691,156.621017 
	C352.191284,137.625046 330.085846,127.925758 305.891846,122.428902 
	C289.134766,118.621696 272.073395,117.212204 254.942078,116.232910 
	C227.464172,114.662170 199.975204,115.443756 172.489624,115.381020 
	C170.727890,115.376991 168.847839,114.866058 166.810287,116.225258 
	C169.121307,120.686417 172.752563,124.128601 175.660400,128.068130 
	C177.444138,130.484711 179.353043,132.779587 180.450272,135.630173 
	C182.783157,141.690948 181.126358,146.975113 175.484329,150.172043 
	C169.796951,153.394684 163.714188,155.714371 157.140411,156.267792 
	C154.410187,156.497665 153.220352,157.611420 153.340103,160.315308 
	C153.973480,174.614655 152.125549,188.846283 152.618729,203.209122 
	C152.992493,214.094101 152.264557,225.145065 152.348923,236.118820 
	C152.505035,256.424500 153.591553,276.682007 156.163284,296.847015 
	C156.485809,299.375824 157.500137,300.863190 159.876205,301.471008 
	C173.026535,304.834747 186.323425,306.445801 199.903275,304.917023 
	C202.541092,304.620056 203.701401,303.361877 203.734161,300.711487 
	C203.820557,293.715546 204.071899,286.708771 201.964783,279.913239 
	C200.773941,276.072784 200.669342,271.213806 194.785172,271.301422 
	C190.202927,271.369629 185.095306,276.131195 184.175461,281.132629 
	C183.904877,282.603912 183.909744,284.134277 183.552963,285.579498 
	C182.807327,288.599701 180.550903,290.102570 177.659912,289.957397 
	C174.862183,289.816895 173.100998,287.804382 172.796341,285.051636 
	C171.850281,276.503082 175.199677,269.666809 181.936432,264.633453 
	C188.470581,259.751495 195.659317,257.979095 203.492126,261.662506 
	C207.571930,263.581055 209.651382,267.123749 211.164963,271.103088 
	C213.916168,278.336151 214.988129,285.913147 215.220642,293.575256 
	C215.316391,296.730408 216.504501,298.311951 219.489365,298.443329 
	C234.309036,299.095490 249.086502,298.088470 263.863739,297.171417 
	C264.128479,297.154938 264.370605,296.774139 264.620087,296.560852 
	C265.193390,295.709198 264.686554,294.975586 264.357178,294.233215 
	C263.208588,291.644196 263.491364,289.238190 265.774292,287.506531 
	C268.169952,285.689392 270.714722,285.929138 273.169128,287.686798 
	C279.674500,292.345490 286.186615,297.036865 293.592346,300.182098 
	C298.217529,302.146484 302.895325,304.435181 309.000061,303.101898 
	C304.890167,293.767761 298.867401,286.925354 291.224030,281.376923 
	C290.011566,280.496765 288.685791,279.765442 287.516876,278.834137 
	C284.853363,276.712097 283.740601,274.085114 285.766541,270.987762 
	C287.660370,268.092407 290.778564,267.809540 293.294739,269.338409 
	C306.183960,277.170288 316.308868,287.607849 320.941132,302.263916 
	C323.200287,309.411682 318.549591,314.789490 310.535156,315.152832 
	C302.195831,315.530884 294.325409,313.313354 286.996704,309.520935 
	C283.094788,307.501770 279.179352,306.768951 274.970428,307.392914 
	C256.251709,310.167847 237.408966,309.229614 218.602539,309.325623 
	C215.682953,309.340546 213.182495,309.573669 211.072311,312.129761 
	C208.873535,314.793213 205.444687,315.872498 202.136292,316.131866 
	C186.793045,317.334900 171.549988,316.626587 156.674850,312.326691 
	C146.530945,309.394440 145.810623,308.330231 144.768402,297.963013 
	C144.352737,293.828278 143.927933,289.691864 143.651016,285.546600 
	C143.420364,282.093658 142.048294,280.980713 138.458496,281.755249 
	C101.514946,289.725708 66.054741,283.878754 31.496077,269.992310 
	C30.878744,269.744232 30.293486,269.417542 29.682762,269.151611 
	C26.329290,267.691589 23.034475,265.915649 23.944483,261.554688 
	C24.783651,257.533203 28.442276,257.109253 31.806002,256.694275 
	C50.796589,254.351410 69.736916,251.639725 87.905769,245.368927 
	C107.518127,238.599915 124.703423,228.224518 136.929596,210.850281 
	C139.398453,207.341873 140.775024,203.716263 140.857178,199.302475 
	C141.120514,185.154663 141.710144,171.012360 142.254395,156.871033 
	C142.317078,155.242798 142.211319,154.013031 140.664291,153.056824 
	C132.596985,148.070526 126.836037,140.588959 120.330536,133.937073 
	C114.487976,127.963051 107.766296,123.597313 99.830917,121.035439 
	C96.979553,120.114899 94.202652,118.955605 91.334511,118.096405 
	C67.745773,111.030045 56.342667,93.466827 50.790798,70.946587 
	C49.320507,64.982590 48.273277,58.912071 47.108856,52.875599 
	C46.177963,48.049713 47.895245,44.880802 51.576550,44.378872 
	C55.353062,43.863968 57.463524,46.110134 58.317028,51.262016 
	C59.730202,59.792191 61.399269,68.260406 64.239067,76.468201 
	C69.457664,91.551430 78.759651,102.776146 94.548813,107.125664 
	C112.231758,111.996872 126.290955,121.748421 137.974350,135.779572 
	C147.258636,146.929520 158.523804,148.024414 169.414612,139.853271 
	C168.773819,137.077774 166.726532,135.075745 165.003372,132.901184 
	C154.965179,120.233437 144.899963,107.587120 134.865875,94.916130 
	C133.211899,92.827484 131.253693,90.677475 131.901825,87.784233 
	C132.689896,84.266151 135.084717,82.270775 138.816101,82.711960 
	C151.270279,84.184494 163.765747,83.691498 176.253204,83.694717 
	C180.194061,83.695732 181.903503,86.079048 182.198486,89.689865 
	C183.354355,103.838760 183.338257,103.840073 197.483963,103.787529 
	C206.760529,103.753075 210.894104,99.998642 211.946350,90.536407 
	C212.050446,89.600258 211.899261,88.495392 211.480637,87.662895 
	C206.692368,78.140587 202.992783,68.118492 197.864685,58.738491 
	C193.929474,51.540466 188.497025,46.362610 180.957062,43.189037 
	C165.146210,36.534252 149.385483,29.760328 133.257584,22.877403 
M141.364105,268.438995 
	C141.500458,266.965454 141.786484,265.488129 141.749512,264.018921 
	C141.448410,252.049927 141.091431,240.082291 140.731049,228.114853 
	C140.712296,227.492218 140.822830,226.734772 139.536789,226.261093 
	C128.415497,237.922516 115.086945,246.765320 100.010117,253.006165 
	C85.200447,259.136414 69.561829,262.263763 52.560322,265.481140 
	C75.654457,273.003876 97.892197,275.091156 120.449921,273.343109 
	C127.311653,272.811401 134.366592,272.049072 141.364105,268.438995 
M364.555115,136.908234 
	C368.031982,139.860886 371.508820,142.813538 375.695343,146.368866 
	C375.450653,136.487839 374.531311,127.721458 372.922394,118.090988 
	C366.924652,122.232986 362.061768,126.272049 357.374176,130.576401 
	C359.130005,133.605301 362.065887,134.467743 364.555115,136.908234 
M168.710861,95.387993 
	C162.837418,95.387993 156.963974,95.387993 150.809494,95.387993 
	C155.216965,105.429779 160.748657,107.250175 172.385345,102.906944 
	C171.926788,100.280060 172.351532,97.337837 168.710861,95.387993 
M298.513947,103.996208 
	C297.559601,105.269829 295.964386,106.128426 295.847382,108.604668 
	C299.750824,109.752014 303.736145,110.787201 308.341034,110.932343 
	C307.578156,106.638237 307.014252,102.691147 303.615509,99.489380 
	C301.953918,100.932823 300.475525,102.217125 298.513947,103.996208 
M228.101440,101.090843 
	C226.238754,99.796028 224.765442,97.830345 222.081604,97.576698 
	C220.780304,99.276428 219.711761,100.994759 220.226517,103.714691 
	C223.000931,103.714691 225.647583,103.876251 228.264694,103.667442 
	C230.688400,103.474068 229.293869,102.345512 228.101440,101.090843 
M325.927216,252.812561 
	C326.718140,251.265549 328.164276,249.945786 327.625427,247.737000 
	C325.612640,247.318329 323.622223,246.891602 321.454803,248.380417 
	C322.645081,250.366608 322.120636,253.392548 325.927216,252.812561 
z"/>
<path fill="#000000" opacity="1.000000" stroke="none" 
	d="
M233.109131,166.742523 
	C256.052307,165.911926 278.052917,168.709167 299.716858,174.678085 
	C307.671570,176.869797 312.576202,181.027863 309.597656,191.481171 
	C302.568848,216.148956 277.836517,236.780548 252.393921,237.060730 
	C233.001099,237.274292 222.636093,228.709274 217.944916,207.822510 
	C215.535965,197.097046 215.309448,186.059326 213.713074,175.210327 
	C213.057388,170.754211 215.244797,168.190140 219.684952,167.745895 
	C223.987473,167.315414 228.309769,167.082474 233.109131,166.742523 
M227.469849,198.001419 
	C228.607788,202.674393 229.417557,207.458344 230.952667,211.996979 
	C234.051392,221.158661 240.484283,225.543976 250.173264,225.680145 
	C269.922424,225.957718 291.503723,210.320480 297.853943,191.392502 
	C299.108948,187.651886 298.404327,186.061966 294.509033,184.995865 
	C276.274078,180.005157 257.758484,177.514282 238.857742,178.191666 
	C234.629517,178.343231 230.289383,177.577347 226.160187,179.024261 
	C225.735352,185.311676 227.065033,191.185730 227.469849,198.001419 
z"/>
<path fill="#000000" opacity="1.000000" stroke="none" 
	d="
M455.580322,286.665863 
	C456.251709,276.715271 460.227997,268.286804 464.011200,259.642548 
	C456.483276,264.987976 450.864227,272.089050 445.884399,279.728455 
	C443.252258,283.766296 440.925110,288.005585 438.524963,292.191010 
	C437.266418,294.385742 435.863647,296.457886 433.708649,297.827362 
	C429.465790,300.523590 425.208557,298.398743 424.703003,293.420715 
	C424.442902,290.859283 425.033569,288.434418 425.984894,286.115753 
	C433.142426,268.670624 442.037292,252.129745 452.129059,236.221786 
	C452.925415,234.966461 453.918091,233.803711 454.971924,232.750488 
	C457.062561,230.661118 459.425842,228.882736 462.431427,230.919769 
	C465.506073,233.003632 466.152588,236.071442 464.467590,239.261551 
	C462.463135,243.056488 460.072235,246.647293 457.199585,251.400726 
	C464.546570,245.022522 470.673798,239.044128 477.680603,234.137039 
	C480.556702,232.122833 483.548767,230.381271 486.928833,229.304825 
	C489.339417,228.537125 491.603699,228.475998 493.405029,230.397537 
	C495.286438,232.404526 495.437561,234.791199 494.453796,237.367508 
	C493.544189,239.749512 492.094788,241.739014 490.504944,243.673645 
	C484.262665,251.269745 478.241119,259.026794 473.881134,267.906433 
	C470.326080,275.146667 467.928772,282.673584 468.101624,290.894562 
	C468.192383,295.210907 469.502167,299.071960 471.644470,302.694489 
	C473.526306,305.876587 473.548309,308.818939 470.410980,311.033478 
	C467.346649,313.196503 464.265106,312.343567 461.844482,309.811127 
	C455.719086,303.402771 454.568604,295.524994 455.580322,286.665863 
z"/>
<path fill="#000000" opacity="1.000000" stroke="none" 
	d="
M550.796387,233.843765 
	C548.124939,256.309174 537.045410,274.227692 522.968872,290.587585 
	C519.132019,295.046814 514.118652,298.091339 508.271301,299.528931 
	C500.554016,301.426270 494.847382,298.105011 492.632172,290.440033 
	C490.637970,283.539948 492.217163,276.838959 494.211456,270.353485 
	C499.578247,252.900452 509.222351,238.203339 523.713928,226.912216 
	C526.184998,224.986893 528.935242,223.299316 531.784058,222.001038 
	C541.992188,217.348877 551.063538,219.956635 550.796387,233.843765 
M524.351685,271.887543 
	C525.138306,269.937744 527.486572,267.842285 526.130737,265.983154 
	C523.018799,261.716125 525.828003,259.240662 528.171997,256.467743 
	C531.726990,252.262299 535.197510,247.985947 537.446106,242.914474 
	C538.586182,240.343185 539.968872,237.343231 537.074280,235.167374 
	C534.488159,233.223358 532.257446,235.512543 530.454834,237.009918 
	C527.137207,239.765732 523.845825,242.655579 521.058716,245.928238 
	C513.091309,255.283539 506.612274,265.472351 505.148376,278.076813 
	C504.872131,280.455170 504.954803,282.909454 507.385468,284.234985 
	C509.655121,285.472717 511.920959,284.795654 514.002136,283.505188 
	C518.375793,280.793274 521.214111,276.678528 524.351685,271.887543 
z"/>
<path fill="#000000" opacity="1.000000" stroke="none" 
	d="
M434.495117,232.303406 
	C427.558563,244.656357 419.510834,255.942749 414.080444,268.725006 
	C410.566223,276.996918 407.209229,285.319153 404.387726,293.853455 
	C404.127014,294.642029 403.897034,295.443481 403.588257,296.213074 
	C402.136719,299.830719 400.093109,303.256073 395.595215,301.809845 
	C391.220459,300.403229 391.013824,296.373108 392.066528,292.616882 
	C394.806366,282.840546 398.184662,273.268860 402.388245,264.018616 
	C407.572815,252.609528 414.286041,242.097702 421.644806,231.989273 
	C422.812805,230.384888 424.133881,228.862152 425.558990,227.482224 
	C427.369202,225.729446 429.697205,225.050079 432.005676,226.115387 
	C434.362701,227.203110 435.226135,229.336014 434.495117,232.303406 
z"/>
<path fill="#000000" opacity="1.000000" stroke="none" 
	d="
M303.085266,370.526794 
	C301.287323,378.565765 297.072723,383.770782 289.104797,385.427002 
	C282.328033,386.835632 276.596771,384.972534 272.079468,379.817322 
	C266.831909,373.828766 266.184967,365.084656 270.253174,358.458771 
	C273.885803,352.542175 281.837830,348.903625 288.205933,350.244171 
	C296.592377,352.009583 302.118408,357.845703 303.154755,366.133606 
	C303.318024,367.439301 303.165985,368.784424 303.085266,370.526794 
M276.144653,363.843018 
	C274.574127,368.286713 274.960754,372.404968 278.619141,375.665222 
	C281.321960,378.073914 284.459229,379.403534 288.214783,378.090424 
	C292.624115,376.548737 295.645020,372.458008 295.624969,367.935272 
	C295.604736,363.374603 292.651978,359.303436 288.071808,357.933960 
	C282.784760,356.353149 279.152771,358.819275 276.144653,363.843018 
z"/>
<path fill="#000000" opacity="1.000000" stroke="none" 
	d="
M372.108185,365.017090 
	C372.102600,363.357758 371.885986,362.147980 372.131378,361.040588 
	C372.886230,357.634735 369.879547,352.802948 374.981476,351.061340 
	C381.085571,348.977661 389.439880,351.616516 391.737762,355.679504 
	C394.539948,360.634155 393.516785,365.052124 388.504852,369.738647 
	C388.278900,369.949921 388.190918,370.308716 387.958618,370.751434 
	C389.253998,375.394867 393.146973,379.059509 394.042084,384.321991 
	C390.715942,385.434204 387.739777,386.289948 385.629578,382.734161 
	C384.048492,380.070038 382.637756,377.304810 380.165039,374.750946 
	C380.165039,376.824768 380.147186,378.898773 380.169312,380.972382 
	C380.200348,383.879852 378.818909,385.175323 375.881592,385.124878 
	C373.013916,385.075623 372.134827,383.447205 372.124908,380.963776 
	C372.104340,375.813751 372.112274,370.663574 372.108185,365.017090 
M380.358368,362.022308 
	C381.847229,364.683411 383.606049,363.830963 384.971344,362.098877 
	C386.192139,360.550110 385.200531,359.212097 383.606018,358.661255 
	C381.278015,357.857025 380.182922,358.937714 380.358368,362.022308 
z"/>
<path fill="#000000" opacity="1.000000" stroke="none" 
	d="
M96.742279,358.189606 
	C99.763229,349.596222 108.085663,347.352539 114.030037,353.151794 
	C115.340012,354.429810 116.943451,355.796753 114.958145,357.711914 
	C113.464279,359.153015 112.084297,361.249146 109.527878,359.215454 
	C108.300102,358.238770 106.783028,356.351471 105.312393,358.149750 
	C103.600006,360.243622 106.224304,361.316803 107.330261,362.473907 
	C109.505638,364.749908 112.146675,366.594208 114.231049,368.940521 
	C116.904404,371.949799 118.120644,375.479889 116.387054,379.520538 
	C114.525848,383.858521 110.941803,385.849487 106.549072,385.951111 
	C102.393440,386.047241 98.787720,384.322235 96.407036,380.641663 
	C95.501892,379.242310 95.102501,377.768951 96.773056,376.751007 
	C98.364639,375.781189 99.907700,373.909546 102.095467,375.595093 
	C102.880821,376.200134 103.514595,377.003754 104.306938,377.597473 
	C105.596695,378.563965 106.992142,379.081635 108.288139,377.612305 
	C109.513229,376.223389 109.215569,374.783325 108.004150,373.621704 
	C105.967003,371.668274 103.774857,369.877472 101.711411,367.950256 
	C98.992592,365.410889 96.622719,362.652802 96.742279,358.189606 
z"/>
<path fill="#000000" opacity="1.000000" stroke="none" 
	d="
M475.812988,384.864380 
	C472.500397,385.350952 469.408783,385.205078 469.937958,381.343903 
	C471.334106,371.156830 466.535553,363.011292 461.951599,354.714508 
	C461.487671,353.874847 460.849701,353.012329 461.266754,351.928619 
	C466.158173,350.040405 466.158173,350.040405 473.795135,360.720673 
	C477.793274,357.574219 477.191620,347.950470 486.364227,351.657623 
	C486.038635,355.927643 483.459503,359.137939 481.541168,362.485596 
	C478.470612,367.844086 476.662231,373.305634 477.293793,379.538605 
	C477.469025,381.267761 477.810822,383.240082 475.812988,384.864380 
z"/>
<path fill="#000000" opacity="1.000000" stroke="none" 
	d="
M458.662109,188.641907 
	C456.855927,195.413574 453.329224,200.516434 447.389221,203.573425 
	C441.601990,206.551804 437.340637,203.689362 437.682037,197.302841 
	C438.003479,191.289703 445.247467,182.667389 451.106689,181.323868 
	C455.937378,180.216202 458.004639,182.095596 458.662109,188.641907 
z"/>
<path fill="#000000" opacity="1.000000" stroke="none" 
	d="
M73.842743,240.115387 
	C67.836746,241.651733 62.220726,243.058472 56.390888,243.323914 
	C53.817486,243.441101 51.523609,242.930725 51.286476,239.940735 
	C51.062248,237.113358 53.427147,236.284775 55.594437,236.102615 
	C68.398514,235.026321 80.162125,230.938339 91.136627,224.347702 
	C93.180443,223.120285 95.402344,223.047852 96.711090,225.486282 
	C98.030029,227.943710 96.543144,229.623199 94.581459,230.843445 
	C88.213226,234.804810 81.406998,237.818665 73.842743,240.115387 
z"/>
<path fill="#000000" opacity="1.000000" stroke="none" 
	d="
M182.845764,353.144958 
	C183.475952,351.189087 184.753647,350.863861 186.130997,350.852051 
	C190.284378,350.816467 194.438248,350.834869 198.591919,350.835754 
	C200.749756,350.836182 202.078613,351.769165 202.136612,354.063477 
	C202.183838,355.931854 202.287384,358.068878 199.734879,358.185852 
	C196.381012,358.339539 196.189209,360.423767 196.206772,362.947174 
	C196.247284,368.762634 196.208252,374.578644 196.205063,380.394409 
	C196.203720,382.868530 196.036804,385.086121 192.644806,385.170013 
	C189.116348,385.257233 188.598557,383.227600 188.638931,380.366882 
	C188.723312,374.386169 188.663498,368.403351 188.652145,362.421417 
	C188.648621,360.561035 188.753433,358.483459 186.133987,358.396576 
	C182.731400,358.283752 182.572983,356.112885 182.845764,353.144958 
z"/>
<path fill="#000000" opacity="1.000000" stroke="none" 
	d="
M46.665642,296.654968 
	C41.682735,295.540222 37.430794,293.706085 33.351471,291.438904 
	C31.408125,290.358887 30.194361,288.878357 31.287352,286.574768 
	C32.342983,284.349915 34.490227,283.830750 36.350983,284.838379 
	C46.028816,290.079254 56.338787,291.632019 67.167587,290.774963 
	C69.409340,290.597534 71.102921,291.567200 71.349289,294.041107 
	C71.639404,296.954193 69.498817,297.874115 67.304901,298.081116 
	C60.507599,298.722504 53.722744,298.567322 46.665642,296.654968 
z"/>
<path fill="#000000" opacity="1.000000" stroke="none" 
	d="
M369.211334,183.259415 
	C374.136078,187.981735 375.398376,193.679230 375.259155,199.816132 
	C375.180450,203.285614 373.268219,205.606125 369.837097,205.798721 
	C366.278046,205.998505 364.268799,203.523438 364.022705,200.242920 
	C363.745117,196.542313 362.790039,193.189865 361.399078,189.762405 
	C359.543335,185.189575 362.837860,182.389587 369.211334,183.259415 
z"/>
<path fill="#000000" opacity="1.000000" stroke="none" 
	d="
M215.485992,250.325317 
	C211.826523,250.974167 209.534805,249.723343 208.643555,246.482544 
	C207.684387,242.994827 207.568298,239.441620 210.253845,236.626907 
	C212.502487,234.270096 216.709091,235.058426 218.467010,237.884186 
	C220.667786,241.421814 219.383881,247.478943 215.485992,250.325317 
z"/>
<path fill="#000000" opacity="1.000000" stroke="none" 
	d="
M222.012756,249.745941 
	C219.309601,245.421906 221.622086,242.397125 224.169464,239.808411 
	C225.950577,237.998428 228.498016,238.289871 230.550262,239.801056 
	C232.991165,241.598434 233.491547,243.997574 232.284134,246.816971 
	C231.020554,249.767517 229.197556,251.928757 225.689499,251.812363 
	C224.327805,251.767166 223.163712,251.104767 222.012756,249.745941 
z"/>
<path fill="#000000" opacity="1.000000" stroke="none" 
	d="
M267.667786,197.181137 
	C268.814941,191.115021 272.134003,188.259674 276.630157,189.045502 
	C281.166809,189.838425 284.634460,194.338394 284.111420,198.754059 
	C283.563995,203.375580 279.193665,206.905746 274.228638,206.737000 
	C269.626678,206.580582 267.850189,204.112869 267.667786,197.181137 
z"/>
</svg>