<svg version="1.1" id="Layer_1" xmlns="http://www.w3.org/2000/svg" xmlns:xlink="http://www.w3.org/1999/xlink" x="0px" y="0px"
	 width="100%" viewBox="0 0 528 448" enable-background="new 0 0 528 448" xml:space="preserve">
<path fill="#000000" opacity="1.000000" stroke="none" 
	d="
M145.103668,14.163928 
	C148.420242,11.632615 151.833481,11.865705 154.931961,13.165627 
	C182.107147,24.566647 209.517517,35.449120 236.079102,48.241383 
	C247.091354,53.544960 254.750015,62.560886 260.004883,73.573372 
	C265.383667,84.845543 270.834961,96.084435 276.074524,107.421097 
	C278.322388,112.284737 281.437714,116.161682 286.140656,118.794891 
	C295.104980,123.814072 302.929901,130.217743 309.344025,138.282272 
	C312.345947,142.056641 316.186859,143.586472 321.047882,143.863190 
	C331.503418,144.458359 341.936707,145.501404 352.363312,146.522736 
	C357.841431,147.059326 362.179016,145.508331 365.225677,140.759537 
	C369.805878,133.620361 375.933594,128.043762 383.002838,123.461784 
	C393.104889,116.914078 401.988312,119.232971 407.423676,129.876633 
	C410.615692,136.127258 413.245331,142.643051 414.272217,149.601898 
	C415.096161,155.185623 417.870667,158.446823 423.204132,160.323837 
	C430.735931,162.974503 438.137848,166.036484 445.448334,169.256226 
	C449.186798,170.902771 452.027222,170.251953 455.028503,167.756180 
	C461.304749,162.537109 467.725983,157.491364 474.122833,152.418793 
	C476.472595,150.555466 478.926453,148.827393 481.750397,147.713287 
	C492.136047,143.615936 501.517395,148.848282 503.309753,159.865936 
	C505.875549,175.638168 507.849762,191.563965 507.645447,207.488388 
	C507.498505,218.941864 510.719910,228.810623 515.214172,238.999191 
	C530.936829,274.643066 525.979980,308.721008 506.307556,341.472046 
	C487.106720,373.438019 458.830292,394.515717 425.364777,409.419128 
	C421.437836,411.167908 417.275269,412.017090 413.961334,408.003784 
	C410.002075,403.209015 411.442108,398.072937 417.836639,394.587128 
	C424.856140,390.760651 431.990906,387.146301 439.037262,383.368286 
	C456.030823,374.257080 470.275696,361.883331 482.227295,346.809387 
	C482.950226,345.897644 483.642303,344.959503 484.304871,344.003235 
	C484.476501,343.755554 484.481842,343.392731 484.596069,342.959320 
	C482.986877,341.748047 481.103882,342.354370 479.374725,342.343628 
	C469.043427,342.279480 458.709320,342.437958 448.381012,342.251404 
	C444.845215,342.187531 442.796753,343.472443 441.502258,346.685944 
	C439.510345,351.630829 437.271149,356.478638 434.271484,360.917603 
	C427.405792,371.077637 417.461945,371.869598 409.252502,362.757538 
	C402.014984,354.724213 398.645294,344.736481 395.945038,334.558502 
	C394.783325,330.179626 397.986267,326.599060 403.338501,325.825806 
	C406.950439,325.304047 410.632629,325.063904 414.284271,325.054840 
	C438.615540,324.994324 462.947083,325.036316 487.278534,325.031006 
	C495.736511,325.029144 497.203857,324.027466 500.350769,316.272339 
	C515.523315,278.881622 506.830658,241.223190 476.631470,211.130920 
	C453.712341,188.292908 425.441650,176.295898 394.565399,169.329208 
	C372.926086,164.446701 350.916931,162.543991 328.807892,161.119736 
	C289.022827,158.556793 249.207291,159.656967 209.402512,159.367859 
	C207.631989,159.354996 205.694260,158.917694 204.188766,160.637482 
	C204.729385,163.745758 206.916489,165.870300 208.772308,168.166824 
	C212.856277,173.220566 217.139999,178.130936 220.395767,183.789734 
	C226.093674,193.693146 223.527496,202.724274 213.578934,208.268784 
	C206.064041,212.456985 198.005402,215.020584 189.517517,216.103394 
	C185.726410,216.587006 184.410355,218.580124 184.347839,222.086533 
	C183.599289,264.066254 182.594955,306.054504 183.520233,348.031830 
	C183.966904,368.295532 185.595108,388.557953 188.255814,408.700287 
	C188.777664,412.650879 190.400131,415.002106 194.413345,416.061096 
	C211.662460,420.612854 229.182388,421.755310 246.906265,420.626190 
	C250.548172,420.394196 252.641602,418.656250 252.826126,414.663696 
	C253.336716,403.616089 252.821182,392.703400 249.510956,382.056580 
	C247.536713,375.706787 242.679337,373.461609 236.630432,376.412537 
	C231.765533,378.785828 228.414413,382.587982 227.300110,388.060089 
	C226.835541,390.341522 226.609589,392.686035 225.969162,394.913940 
	C224.794006,399.001953 221.716171,400.903015 217.668518,400.721771 
	C213.721436,400.545105 211.422913,398.209534 210.592911,394.215607 
	C207.423264,378.963257 219.579865,362.171967 236.434128,358.671936 
	C249.394730,355.980530 259.882446,361.942535 264.458893,374.364197 
	C268.187653,384.485077 269.391479,395.039703 270.176544,405.665802 
	C270.465210,409.572296 272.376678,411.526764 276.108521,411.602234 
	C295.939148,412.003357 315.743622,411.508942 335.495361,409.571289 
	C335.953156,409.526367 336.378998,409.156006 336.741455,408.976257 
	C337.757477,407.530884 336.862457,406.280579 336.426666,405.113953 
	C335.199524,401.828888 336.239288,399.142914 338.614136,396.993408 
	C341.147003,394.700806 344.244568,393.857056 347.391693,395.590210 
	C350.439453,397.268646 353.313904,399.276123 356.193329,401.243195 
	C366.953918,408.594391 377.888367,415.580048 390.949371,418.197693 
	C393.026489,418.613983 395.175629,419.274536 397.108978,417.738678 
	C397.780853,415.792023 396.492279,414.477722 395.737610,413.080566 
	C390.495880,403.376648 383.175720,395.508270 374.296265,389.038361 
	C372.411285,387.664917 370.430664,386.399506 368.676331,384.874664 
	C364.699371,381.417908 364.045868,377.608978 366.600342,373.867859 
	C369.251129,369.985687 373.549805,368.939758 378.019226,371.672913 
	C387.734619,377.614166 396.634399,384.577087 403.640656,393.703247 
	C408.329926,399.811401 412.001221,406.423920 414.923004,413.606049 
	C420.635315,427.647675 412.370392,436.126251 397.959930,435.811768 
	C388.043060,435.595337 378.519348,433.130798 369.709442,428.446716 
	C364.213409,425.524567 358.454193,424.416870 352.330994,425.132294 
	C332.454895,427.454559 312.494720,427.981689 292.511383,427.918213 
	C286.690491,427.899719 280.871582,427.443512 275.050049,427.396210 
	C270.599060,427.360046 266.544342,428.485291 263.351959,431.996460 
	C260.269196,435.387024 255.994812,436.743774 251.670181,437.040649 
	C237.050629,438.044189 222.422974,438.162384 207.874741,435.901337 
	C199.649704,434.623016 191.555695,432.787598 183.597916,430.325989 
	C177.117065,428.321289 172.952469,424.527557 172.343201,417.344269 
	C171.711319,409.894470 170.825073,402.462769 169.888931,395.043457 
	C169.191772,389.518158 167.898972,388.696228 162.233551,389.800354 
	C146.511551,392.864471 130.683472,394.536224 114.628082,394.415344 
	C83.278572,394.179230 53.282494,387.315735 24.048185,376.529602 
	C19.369192,374.803284 14.767637,372.841675 10.223135,370.783783 
	C6.191662,368.958252 3.935852,365.887604 4.759470,361.215729 
	C5.504222,356.991150 8.298209,355.103455 12.357449,354.509705 
	C25.338739,352.611053 38.354733,350.896851 51.272949,348.630493 
	C80.848129,343.441803 109.373962,335.307892 134.194214,317.426849 
	C144.560379,309.958893 153.227585,300.821716 160.864014,290.600342 
	C166.490341,283.069519 166.140381,274.252014 166.540558,265.702911 
	C167.256607,250.405441 167.262665,235.075775 167.862747,219.771225 
	C168.051285,214.962875 166.768570,211.743088 162.536972,209.002426 
	C155.943848,204.732330 150.451385,198.991638 145.452866,192.971725 
	C133.680649,178.793991 119.050682,169.225204 101.295822,164.396469 
	C67.002228,155.069702 49.609680,130.615051 41.723259,97.726440 
	C39.631084,89.001495 37.601879,80.244011 36.554127,71.315094 
	C35.820606,65.064079 38.092941,61.389561 42.835690,60.636589 
	C47.956879,59.823540 51.060001,62.038399 52.497383,68.284500 
	C55.326431,80.578033 57.093384,93.113464 61.334507,105.079742 
	C66.845818,120.629837 75.398857,133.727264 90.192238,142.007004 
	C93.851921,144.055313 97.709435,145.654526 101.714897,146.743011 
	C127.037521,153.624344 147.400375,167.919052 164.129532,187.864883 
	C169.993225,194.856033 177.183411,199.734024 186.829895,199.675430 
	C191.984146,199.644135 196.542603,197.668686 201.046127,195.435425 
	C204.966919,193.491135 205.559143,191.039520 202.767014,187.555573 
	C195.577011,178.584000 188.508987,169.514755 181.369324,160.502701 
	C173.402084,150.446030 165.378525,140.433792 157.445663,130.350128 
	C154.832687,127.028732 152.487152,123.551140 154.442230,118.950493 
	C155.880142,115.566811 158.203125,113.284340 162.034088,113.604004 
	C179.995499,115.102737 197.995743,114.431007 215.976913,114.790344 
	C221.053574,114.891785 223.681778,117.829636 224.276688,123.055717 
	C224.671631,126.525009 224.971466,130.005325 225.384537,133.472290 
	C225.954849,138.259201 228.063324,141.418793 233.373184,142.115997 
	C239.898483,142.972778 246.349548,143.020355 252.707886,141.417511 
	C260.640472,139.417831 266.805603,128.586273 263.617432,121.211792 
	C257.608459,107.312614 251.757339,93.305367 244.424240,80.026924 
	C238.907593,70.037621 230.501617,63.309566 219.950684,58.891811 
	C196.297058,48.987850 172.742081,38.846764 149.194504,28.691942 
	C141.975662,25.578842 140.650192,20.853186 145.103668,14.163928 
M49.335426,366.358215 
	C49.186947,366.433899 48.975578,366.474457 48.907955,366.595337 
	C48.842495,366.712433 48.877449,367.028992 48.949501,367.058228 
	C50.175354,367.556671 51.385670,368.123169 52.653728,368.483521 
	C77.019135,375.407501 101.896904,378.562744 127.176582,377.512207 
	C138.757385,377.030914 150.434204,376.538971 161.651443,372.607819 
	C166.158630,371.028229 167.811630,368.174896 167.471542,364.053558 
	C166.551834,352.908813 167.073074,341.738190 166.541977,330.601440 
	C166.279083,325.088257 166.543808,319.439453 165.205353,313.924805 
	C164.438705,314.140533 164.062256,314.149933 163.816986,314.334045 
	C163.155106,314.830933 162.514297,315.367096 161.925964,315.949158 
	C142.424789,335.242310 119.088120,347.938019 93.043648,355.951050 
	C78.879326,360.308960 64.340271,363.119354 49.335426,366.358215 
M486.379333,196.972733 
	C487.697876,197.773682 488.390381,199.644913 490.761017,199.360336 
	C490.054504,187.807098 489.246948,176.358643 486.956604,164.202850 
	C480.209412,167.945160 475.330078,172.901321 469.906067,177.105530 
	C466.925110,179.416061 466.909851,181.303879 470.031128,183.681702 
	C475.433655,187.797394 480.591064,192.234818 486.379333,196.972733 
M191.579849,143.371017 
	C196.058090,144.344696 200.522675,144.285370 204.901825,142.927231 
	C207.020157,142.270248 209.958710,142.049728 209.364639,138.707657 
	C208.865021,135.896942 207.924728,132.639618 204.539551,132.483932 
	C197.174713,132.145218 189.783524,132.379364 182.034012,132.379364 
	C183.854324,137.579788 186.634979,140.918320 191.579849,143.371017 
M393.554108,140.291901 
	C391.844269,137.903397 390.101624,138.833740 388.624664,140.434448 
	C386.341034,142.909424 382.641479,144.414612 382.501831,148.408051 
	C382.455750,149.727081 384.117554,149.955185 385.173798,150.273682 
	C388.956635,151.414383 392.810242,152.127350 397.020111,151.808578 
	C396.896179,147.753677 396.019012,144.145233 393.554108,140.291901 
M280.366943,135.624893 
	C277.223206,136.460159 276.122009,139.538528 277.681244,141.218506 
	C280.256226,143.992935 283.985168,142.917236 287.701202,141.577026 
	C285.840210,138.503143 283.526428,137.031296 280.366943,135.624893 
M417.763672,344.282196 
	C418.324951,346.158051 418.734924,348.698456 421.268341,348.137085 
	C423.506653,347.641052 424.177185,345.343964 424.037628,342.513062 
	C421.842682,342.573700 419.650604,341.157410 417.763672,344.282196 
z"/>
<path fill="#000000" opacity="1.000000" stroke="none" 
	d="
M401.347229,257.064331 
	C400.844177,268.041107 396.293579,277.176239 390.771210,285.694427 
	C377.695099,305.864288 359.849701,319.874725 336.212433,325.776215 
	C327.233307,328.018066 318.075806,328.145111 308.965179,326.848938 
	C290.033173,324.155579 280.257568,311.560120 274.857605,294.542694 
	C271.061005,282.578064 270.225677,270.087677 268.723907,257.724823 
	C268.182983,253.271667 267.895233,248.784515 267.251190,244.347824 
	C265.944397,235.345749 268.413025,231.793915 277.271637,230.809784 
	C292.534149,229.114212 307.885162,229.079269 323.160645,229.919357 
	C344.788269,231.108765 366.023590,235.188248 386.950439,240.762146 
	C397.129242,243.473267 400.978363,247.821869 401.347229,257.064331 
M345.773071,248.908905 
	C338.588043,247.288788 331.223358,247.114685 323.942810,246.766174 
	C312.640625,246.225143 301.299683,246.420914 289.975677,246.455627 
	C286.975342,246.464828 285.094788,247.818161 285.177185,251.390091 
	C285.516785,266.117493 287.392334,280.578491 292.624634,294.420166 
	C295.776581,302.758392 301.682159,308.364014 310.617554,310.109100 
	C317.042908,311.363953 323.583832,311.335480 329.926178,309.662598 
	C354.564026,303.163971 372.863586,289.031067 382.716461,265.033142 
	C384.975037,259.532135 383.838531,257.063812 378.350494,255.681412 
	C367.874756,253.042664 357.381287,250.430573 345.773071,248.908905 
z"/>
<path fill="#000000" opacity="1.000000" stroke="none" 
	d="
M101.111961,308.132263 
	C104.268654,308.522797 106.060669,310.035858 106.540047,312.858429 
	C107.031746,315.753662 105.435875,317.665680 103.191650,319.028625 
	C86.854485,328.950012 69.268822,335.098206 50.098869,336.310608 
	C46.562401,336.534302 43.162045,336.078857 42.757263,331.536652 
	C42.355667,327.030182 45.422897,326.051361 49.080246,325.594696 
	C66.117905,323.467377 82.261787,318.608521 97.069344,309.707367 
	C98.193962,309.031311 99.508728,308.671600 101.111961,308.132263 
z"/>
<path fill="#000000" opacity="1.000000" stroke="none" 
	d="
M40.301945,411.056824 
	C32.395020,409.310303 25.188017,406.910461 18.461735,403.143616 
	C15.118180,401.271179 13.253605,398.722656 15.176783,395.015228 
	C17.033636,391.435608 20.311731,391.616486 23.367483,393.232117 
	C35.956028,399.887939 49.409927,401.737732 63.419849,400.860016 
	C67.284843,400.617889 70.680580,401.735840 70.997787,406.165680 
	C71.330597,410.813416 67.672470,412.018372 64.027733,412.174652 
	C56.243984,412.508392 48.427502,412.834961 40.301945,411.056824 
z"/>
<path fill="#000000" opacity="1.000000" stroke="none" 
	d="
M471.739349,255.093994 
	C478.797668,250.425919 482.939941,251.189011 486.945770,257.817810 
	C490.308380,263.382202 491.623993,269.561462 491.217926,276.012543 
	C490.893829,281.161224 487.705719,284.177155 482.981903,284.305695 
	C478.437164,284.429413 475.562164,281.881592 474.751740,276.685364 
	C474.006378,271.906525 473.048035,267.203674 471.350800,262.659882 
	C470.452850,260.256042 470.179565,257.811005 471.739349,255.093994 
z"/>
<path fill="#000000" opacity="1.000000" stroke="none" 
	d="
M259.647400,338.993469 
	C259.029480,336.660034 258.688599,334.760895 259.148529,332.703705 
	C260.473114,326.779388 263.825165,323.748901 268.518524,324.441895 
	C273.527527,325.181488 276.665985,329.886627 275.952179,335.673340 
	C275.810242,336.823914 275.633453,338.028168 275.165894,339.069946 
	C273.652863,342.441010 272.040527,345.958740 267.692657,346.204803 
	C263.035492,346.468292 260.906555,343.390411 259.647400,338.993469 
z"/>
<path fill="#000000" opacity="1.000000" stroke="none" 
	d="
M294.031372,339.472595 
	C293.129486,341.884521 292.185669,343.838867 290.562439,345.318146 
	C288.264984,347.411865 285.660248,348.751617 282.441956,347.691895 
	C279.103333,346.592499 277.291626,344.057220 276.802246,340.743225 
	C276.145569,336.296356 278.655731,333.177094 281.830170,330.563385 
	C284.261841,328.561249 286.931030,328.559998 289.710175,330.022064 
	C293.433472,331.980774 294.819580,335.008087 294.031372,339.472595 
z"/>
<path fill="#000000" opacity="1.000000" stroke="none" 
	d="
M342.292297,268.886719 
	C345.683197,260.837952 351.025543,258.428253 357.760651,261.596710 
	C364.093567,264.575958 366.998962,272.033630 364.112122,277.899719 
	C360.900940,284.424744 351.874481,288.127625 346.435272,284.562378 
	C340.896515,280.931915 341.228882,275.039429 342.292297,268.886719 
z"/>
</svg>